<svg width="24" height="24" viewBox="0 0 24 24" fill="none" xmlns="http://www.w3.org/2000/svg">
<path fill-rule="evenodd" clip-rule="evenodd" d="M8.91091 4.66913C8.68613 4.33196 8.2801 4.16378 7.88274 4.24325L5.92448 4.6349C5.21316 4.77716 4.63464 5.29343 4.41266 5.98404L4.0414 7.13907C3.18086 9.81632 2.69352 12.5994 2.59315 15.4098C2.55072 16.5977 3.22551 17.695 4.30478 18.1931L6.86578 19.3751C7.31291 19.5815 7.84373 19.4316 8.11689 19.0219L8.16795 18.9453C8.4743 18.4858 9.09517 18.3616 9.5547 18.6679C10.0142 18.9743 10.1384 19.5952 9.83205 20.0547L9.78099 20.1313C8.9615 21.3605 7.36905 21.8102 6.02767 21.1911L3.46666 20.0091C1.65557 19.1732 0.523227 17.3318 0.59442 15.3384C0.701351 12.3443 1.22055 9.37931 2.13734 6.52705L2.5086 5.37202C2.95256 3.99081 4.10961 2.95827 5.53225 2.67374L7.49051 2.28209C8.60533 2.05912 9.74293 2.48596 10.4372 3.36955C11.4689 3.16405 12.5311 3.16405 13.5628 3.36955C14.2571 2.48596 15.3947 2.05912 16.5095 2.28209L18.4678 2.67374C19.8904 2.95827 21.0474 3.99081 21.4914 5.37202L21.8627 6.52705C22.7795 9.37931 23.2987 12.3443 23.4056 15.3384C23.4768 17.3318 22.3444 19.1732 20.5333 20.0091L17.9723 21.1911C16.6309 21.8102 15.0385 21.3605 14.219 20.1313L14.168 20.0547C13.8616 19.5952 13.9858 18.9743 14.4453 18.6679C14.9048 18.3616 15.5257 18.4858 15.832 18.9453L15.8831 19.0219C16.1563 19.4316 16.6871 19.5815 17.1342 19.3751L19.6952 18.1931C20.7745 17.695 21.4493 16.5977 21.4069 15.4098C21.3065 12.5994 20.8191 9.81632 19.9586 7.13907L19.5873 5.98404C19.3654 5.29343 18.7868 4.77716 18.0755 4.6349L16.1173 4.24325C15.7199 4.16378 15.3139 4.33196 15.0891 4.66913L14.4411 5.64105L13.4552 5.39457C12.4998 5.15571 11.5002 5.15571 10.5448 5.39457L9.55886 5.64105L8.91091 4.66913ZM8 9.99999C7.44772 9.99999 7 10.4477 7 11C7 11.5523 7.44772 12 8 12C8.55229 12 9 11.5523 9 11C9 10.4477 8.55229 9.99999 8 9.99999ZM5 11C5 9.34314 6.34315 7.99999 8 7.99999C9.65686 7.99999 11 9.34314 11 11C11 12.6568 9.65686 14 8 14C6.34315 14 5 12.6568 5 11ZM16 9.99999C15.4477 9.99999 15 10.4477 15 11C15 11.5523 15.4477 12 16 12C16.5523 12 17 11.5523 17 11C17 10.4477 16.5523 9.99999 16 9.99999ZM13 11C13 9.34314 14.3431 7.99999 16 7.99999C17.6569 7.99999 19 9.34314 19 11C19 12.6568 17.6569 14 16 14C14.3431 14 13 12.6568 13 11ZM5.07692 15.6154C5.28934 15.1056 5.87481 14.8645 6.38462 15.0769L8.15385 15.8141C10.6154 16.8397 13.3846 16.8397 15.8462 15.8141L17.6154 15.0769C18.1252 14.8645 18.7107 15.1056 18.9231 15.6154C19.1355 16.1252 18.8944 16.7107 18.3846 16.9231L16.6154 17.6602C13.6615 18.891 10.3385 18.891 7.38462 17.6602L5.61539 16.9231C5.10558 16.7107 4.86451 16.1252 5.07692 15.6154Z" fill="#000000"/>
</svg>
