<svg width="158" height="89" viewBox="0 0 158 89" fill="none" xmlns="http://www.w3.org/2000/svg">
<circle cx="140" cy="27" r="18" fill="#EB5528"/>
<circle cx="18" cy="27" r="18" fill="#EB5528"/>
<path d="M79.0847 84.0002C109.875 84.0002 131.261 54.3481 139.165 27.4405C139.876 24.9994 141.657 26.0412 141.021 28.5C133.578 57.275 110.995 89.0002 79.0847 89.0002C46.4546 89.0002 25.5529 57.2224 17.1649 28.5609C16.4429 26.0842 18.282 24.9638 19.0048 27.4404C26.9635 54.3418 48.251 84.0002 79.0847 84.0002Z" fill="black"/>
<path fill-rule="evenodd" clip-rule="evenodd" d="M96.8913 0.758558C98.5831 0.700644 99.4131 2.11744 99.7271 2.93876L108.669 18.2413C109.9 20.497 110.179 21.5414 109.07 23.8595L99.9273 42.2961C99.4812 43.5485 98.3193 44.7155 96.8913 44.756V0.758558ZM97.9901 40.9765L105.526 23.4013L103.711 24.0144C101.085 24.9018 99.2303 27.2552 98.9808 30.016L97.9901 40.9765ZM99.0905 16.7387C99.2645 18.6689 100.797 20.1967 102.728 20.3644L105.413 20.5978L97.9901 4.53638L99.0905 16.7387Z" fill="black"/>
<path fill-rule="evenodd" clip-rule="evenodd" d="M96.8913 0.758558C95.1995 0.700644 94.3694 2.11744 94.0555 2.93876L85.1135 18.2413C83.8829 20.497 83.6035 21.5414 84.7122 23.8595L93.8553 42.2961C94.3013 43.5485 95.4632 44.7155 96.8913 44.756V0.758558ZM95.7924 40.9765L88.2567 23.4013L90.071 24.0144C92.6971 24.9018 94.5522 27.2552 94.8018 30.016L95.7924 40.9765ZM94.6921 16.7387C94.518 18.6689 92.9853 20.1967 91.0545 20.3644L88.3691 20.5978L95.7924 4.53638L94.6921 16.7387Z" fill="black"/>
<path fill-rule="evenodd" clip-rule="evenodd" d="M62.9908 0.758558C64.6826 0.700644 65.5126 2.11744 65.8265 2.93876L74.7685 18.2413C75.9991 20.497 76.2786 21.5414 75.1698 23.8595L66.0268 42.2961C65.5807 43.5485 64.4188 44.7155 62.9908 44.756V0.758558ZM64.0896 40.9765L71.6253 23.4013L69.811 24.0144C67.1849 24.9018 65.3298 27.2552 65.0803 30.016L64.0896 40.9765ZM65.19 16.7387C65.364 18.6689 66.8968 20.1967 68.8276 20.3644L71.5129 20.5978L64.0896 4.53638L65.19 16.7387Z" fill="black"/>
<path fill-rule="evenodd" clip-rule="evenodd" d="M62.9908 0.758558C61.299 0.700644 60.4689 2.11744 60.155 2.93876L51.213 18.2413C49.9824 20.497 49.7029 21.5414 50.8117 23.8595L59.9548 42.2961C60.4008 43.5485 61.5627 44.7155 62.9908 44.756V0.758558ZM61.8919 40.9765L54.3562 23.4013L56.1705 24.0144C58.7966 24.9018 60.6517 27.2552 60.9012 30.016L61.8919 40.9765ZM60.7916 16.7387C60.6175 18.6689 59.0847 20.1967 57.154 20.3644L54.4686 20.5978L61.8919 4.53638L60.7916 16.7387Z" fill="black"/>
</svg>
