<svg width="158" height="89" viewBox="0 0 158 89" fill="none" xmlns="http://www.w3.org/2000/svg">
<circle cx="140" cy="26.9998" r="18" fill="#EB5528"/>
<circle cx="18" cy="26.9998" r="18" fill="#EB5528"/>
<path d="M79.0847 84C109.875 84 131.261 54.3479 139.165 27.4403C139.876 24.9993 141.657 26.0411 141.021 28.4998C133.578 57.2749 110.995 89 79.0847 89C46.4546 89 25.5529 57.2222 17.1649 28.5607C16.4429 26.084 18.282 24.9636 19.0048 27.4403C26.9635 54.3416 48.251 84 79.0847 84Z" fill="black"/>
<path fill-rule="evenodd" clip-rule="evenodd" d="M96.8912 0.758344C98.583 0.70043 99.4131 2.11722 99.727 2.93855L108.669 18.2411C109.9 20.4968 110.179 21.5412 109.07 23.8593L99.9272 42.2959C99.4812 43.5483 98.3193 44.7152 96.8912 44.7558L95.8912 22.7571L96.8912 0.758344ZM97.9901 40.9763L105.526 23.4011L103.711 24.0142C101.085 24.9016 99.2303 27.255 98.9807 30.0157L97.9901 40.9763ZM99.0904 16.7385C99.2645 18.6687 100.797 20.1965 102.728 20.3642L105.413 20.5975L97.9901 4.53616L99.0904 16.7385Z" fill="black"/>
<path fill-rule="evenodd" clip-rule="evenodd" d="M96.8912 0.758344C95.1994 0.70043 94.3694 2.11722 94.0554 2.93855L85.1135 18.2411C83.8829 20.4968 83.6034 21.5412 84.7122 23.8593L93.8552 42.2959C94.3013 43.5483 95.4632 44.7152 96.8912 44.7558L97.8912 22.7571L96.8912 0.758344ZM95.7924 40.9763L88.2566 23.4011L90.071 24.0142C92.6971 24.9016 94.5522 27.255 94.8017 30.0157L95.7924 40.9763ZM94.692 16.7385C94.518 18.6687 92.9852 20.1965 91.0544 20.3642L88.3691 20.5975L95.7924 4.53616L94.692 16.7385Z" fill="black"/>
<path fill-rule="evenodd" clip-rule="evenodd" d="M62.9907 0.758344C64.6825 0.70043 65.5126 2.11722 65.8265 2.93855L74.7684 18.2411C75.999 20.4968 76.2785 21.5412 75.1697 23.8593L66.0267 42.2959C65.5806 43.5483 64.4188 44.7152 62.9907 44.7558L61.9907 22.7571L62.9907 0.758344ZM64.0896 40.9763L71.6253 23.4011L69.8109 24.0142C67.1848 24.9016 65.3298 27.255 65.0802 30.0157L64.0896 40.9763ZM65.1899 16.7385C65.364 18.6687 66.8967 20.1965 68.8275 20.3642L71.5129 20.5975L64.0896 4.53616L65.1899 16.7385Z" fill="black"/>
<path fill-rule="evenodd" clip-rule="evenodd" d="M62.9907 0.758344C61.2989 0.70043 60.4688 2.11722 60.1549 2.93855L51.213 18.2411C49.9824 20.4968 49.7029 21.5412 50.8117 23.8593L59.9547 42.2959C60.4008 43.5483 61.5626 44.7152 62.9907 44.7558L63.9907 22.7571L62.9907 0.758344ZM61.8918 40.9763L54.3561 23.4011L56.1705 24.0142C58.7966 24.9016 60.6517 27.255 60.9012 30.0157L61.8918 40.9763ZM60.7915 16.7385C60.6175 18.6687 59.0847 20.1965 57.1539 20.3642L54.4686 20.5975L61.8918 4.53616L60.7915 16.7385Z" fill="black"/>
</svg>
