<svg width="330" height="330" viewBox="0 0 330 330" fill="none" xmlns="http://www.w3.org/2000/svg">
<path fill-rule="evenodd" clip-rule="evenodd" d="M330 0H0V330H330V0ZM95.2835 326.14C97.539 327.141 100.19 326.445 101.657 324.466L165.445 238.395L228.376 324.426C229.838 326.426 232.505 327.135 234.773 326.128C237.028 325.126 238.281 322.699 237.788 320.289L216.246 215.169L320.547 237.498C322.987 238.02 325.461 236.765 326.472 234.492C327.471 232.247 326.775 229.613 324.796 228.15L238.633 164.418L324.756 101.544C326.755 100.084 327.464 97.4344 326.46 95.1769C325.454 92.9156 323.001 91.6595 320.57 92.1607L216.246 113.667L237.78 9.40945C238.278 6.99948 237.026 4.56909 234.77 3.56745C232.503 2.56109 229.839 3.26969 228.378 5.26753L165.445 91.3018L101.655 5.22787C100.189 3.25036 97.5404 2.55461 95.2867 3.55529C93.0187 4.5623 91.7675 7.01307 92.2863 9.43209L114.644 113.667L9.45753 92.1536C7.02646 91.6564 4.57604 92.9135 3.57047 95.1738C2.56536 97.4331 3.27515 100.085 5.27604 101.546L91.3963 164.418L5.23618 228.147C3.25578 229.612 2.55888 232.249 3.5583 234.495C4.56923 236.768 7.04016 238.024 9.48034 237.505L114.644 215.169L92.2789 320.266C91.7642 322.685 93.0165 325.133 95.2835 326.14Z" fill="black"/>
</svg>
